<svg xmlns="http://www.w3.org/2000/svg" width="60.5" height="82.875" viewBox="0 0 60.5 82.875">
  <defs>
    <style>
      .cls-1 {
        fill: #5a5a5d;
        fill-rule: evenodd;
      }
    </style>
  </defs>
  <path id="_16" data-name="16" class="cls-1" d="M594.481,764.354h-2.456a5.347,5.347,0,0,1-5.339-5.342V743.788a5.347,5.347,0,0,1,5.339-5.342h2.456a5.348,5.348,0,0,1,5.339,5.342v15.224A5.348,5.348,0,0,1,594.481,764.354Zm-2.456-22.836a2.272,2.272,0,0,0-2.268,2.27v15.224a2.272,2.272,0,0,0,2.268,2.27h2.456a2.272,2.272,0,0,0,2.268-2.27V743.788a2.272,2.272,0,0,0-2.268-2.27h-2.456Zm49.831,22.836H639.4a5.347,5.347,0,0,1-5.339-5.342V743.788a5.347,5.347,0,0,1,5.339-5.342h2.456a5.347,5.347,0,0,1,5.339,5.342v15.224A5.347,5.347,0,0,1,641.856,764.354ZM639.4,741.518a2.272,2.272,0,0,0-2.268,2.27v15.224a2.272,2.272,0,0,0,2.268,2.27h2.456a2.272,2.272,0,0,0,2.268-2.27V743.788a2.272,2.272,0,0,0-2.268-2.27H639.4Zm-22.508,22.833a12.054,12.054,0,0,1-7.969-3.008,8.535,8.535,0,0,0-5.636-2.145h-5a1.534,1.534,0,0,1-1.535-1.536V745.384a1.534,1.534,0,0,1,1.535-1.536h6.929a8.165,8.165,0,0,0,4.739-1.448,12.252,12.252,0,0,1,13.881,0,8.169,8.169,0,0,0,4.739,1.448H635.6a1.535,1.535,0,0,1,1.536,1.536v12.278A1.535,1.535,0,0,1,635.6,759.2h-5.1a8.537,8.537,0,0,0-5.636,2.144A12.051,12.051,0,0,1,616.892,764.351Zm-17.072-8.225h3.467a11.581,11.581,0,0,1,7.664,2.912,9.226,9.226,0,0,0,11.883,0,11.589,11.589,0,0,1,7.664-2.91h3.563v-9.2h-5.489a11.232,11.232,0,0,1-6.509-2.009,9.12,9.12,0,0,0-10.341,0,11.218,11.218,0,0,1-6.509,2.009H599.82v9.2Zm17,2.9a6.693,6.693,0,1,1,6.691-6.694A6.7,6.7,0,0,1,616.818,759.024Zm0-10.314a3.621,3.621,0,1,0,3.62,3.62A3.624,3.624,0,0,0,616.818,748.71Zm-1.413-5.82h-0.027a1.779,1.779,0,0,1-1.509-1.826c0-.072.117-7.281,0-10.272-0.006-.226-0.033-0.627-0.06-0.961-0.03-.382-0.057-0.8-0.069-1.049a4.844,4.844,0,0,0-1.08-2.987,7.555,7.555,0,0,1-1.562-4.719,6.362,6.362,0,0,1,2.54-4.939c1.026-.953,1.56-1.507,1.56-2.689s-0.534-1.731-1.56-2.681a6.056,6.056,0,0,1,0-9.862c1.026-.95,1.56-1.5,1.56-2.679s-0.534-1.726-1.56-2.676a6.05,6.05,0,0,1,0-9.858c1.023-.949,1.557-1.5,1.557-2.671a1.536,1.536,0,1,1,3.071,0,6.347,6.347,0,0,1-2.54,4.925c-1.026.949-1.56,1.5-1.56,2.673s0.534,1.728,1.56,2.678a6.054,6.054,0,0,1,0,9.86c-1.026.95-1.56,1.5-1.56,2.678s0.534,1.729,1.56,2.678a6.064,6.064,0,0,1,0,9.87c-1.026.952-1.56,1.5-1.56,2.685a4.529,4.529,0,0,0,1.035,2.987,7.829,7.829,0,0,1,1.607,4.584c0.007,0.218.034,0.552,0.06,0.887,0.03,0.381.057,0.762,0.069,1.017,0.12,3.074.007,10.278,0,10.572A1.786,1.786,0,0,1,615.405,742.89Z" transform="translate(-586.688 -681.469)"/>
</svg>
