<svg xmlns="http://www.w3.org/2000/svg" width="55.75" height="84.5" viewBox="0 0 55.75 84.5">
  <defs>
    <style>
      .cls-1 {
        fill: #5a5a5d;
        fill-rule: evenodd;
      }
    </style>
  </defs>
  <path id="_18" data-name="18" class="cls-1" d="M349.592,913.406h-42.72a6.523,6.523,0,0,1-6.514-6.517V883.177a27.483,27.483,0,0,1,19.208-26.334,2.685,2.685,0,0,0,1.862-2.577V837.941a1.536,1.536,0,1,1,3.072,0v16.325a5.745,5.745,0,0,1-4.006,5.5,24.429,24.429,0,0,0-17.065,23.406v23.712a3.448,3.448,0,0,0,3.443,3.444h42.72a3.448,3.448,0,0,0,3.444-3.444V883.177a24.454,24.454,0,0,0-17.283-23.436,5.743,5.743,0,0,1-4.034-5.514V837.941a1.536,1.536,0,1,1,3.072,0v16.286a2.68,2.68,0,0,0,1.877,2.58,27.52,27.52,0,0,1,19.439,26.37v23.712A6.523,6.523,0,0,1,349.592,913.406Zm-4.467-13.826H311.34a1.535,1.535,0,0,1-1.536-1.536V882.682a1.535,1.535,0,0,1,1.536-1.536h33.785a1.534,1.534,0,0,1,1.535,1.536v15.362A1.534,1.534,0,0,1,345.125,899.58Zm-32.249-3.072h30.713v-12.29H312.876v12.29ZM340.518,875h-23.8a1.534,1.534,0,0,1-1.471-1.974c1.814-6.088,6.439-9.307,13.372-9.307s11.558,3.219,13.373,9.307A1.535,1.535,0,0,1,340.518,875Zm-21.561-3.072h19.319c-1.722-3.45-4.9-5.137-9.66-5.137S320.678,868.479,318.957,871.929Zm20.025-33.8h-21.5a1.535,1.535,0,0,1-1.536-1.536v-6.145a1.535,1.535,0,0,1,1.536-1.536h21.5a1.535,1.535,0,0,1,1.536,1.536V836.6A1.535,1.535,0,0,1,338.982,838.133Zm-19.964-3.073h18.428v-3.072H319.018v3.072Z" transform="translate(-300.344 -828.906)"/>
</svg>
