<svg xmlns="http://www.w3.org/2000/svg" width="33.781" height="89.092" viewBox="0 0 33.781 89.092">
  <defs>
    <style>
      .cls-1 {
        fill: #5a5a5d;
        fill-rule: evenodd;
      }
    </style>
  </defs>
  <path id="_22" data-name="22" class="cls-1" d="M332.869,976.389H323.6a4.609,4.609,0,0,1,0-9.217h9.274A4.609,4.609,0,0,1,332.869,976.389Zm-9.274-6.144a1.536,1.536,0,0,0,0,3.072h9.274a1.536,1.536,0,0,0,0-3.072H323.6Zm7.709,28.492a25.96,25.96,0,0,1,3.071.34V974.853a1.535,1.535,0,0,0-1.536-1.536h-9.214a1.534,1.534,0,0,0-1.535,1.536v25.3a9.834,9.834,0,0,1,3.071-.875V976.389H331.3v22.348Zm6.91,57.533H318.25a6.918,6.918,0,0,1-6.91-6.91v-43.78a1.544,1.544,0,0,1,.745-1.32l8.581-5.152a14.946,14.946,0,0,1,15.132,0l8.581,5.152a1.545,1.545,0,0,1,.746,1.32v43.78A6.918,6.918,0,0,1,338.214,1056.27Zm-23.8-49.82v42.91a3.842,3.842,0,0,0,3.839,3.84h19.964a3.841,3.841,0,0,0,3.839-3.84v-42.91l-7.836-4.71a11.847,11.847,0,0,0-11.97,0Zm29.178,12.95H312.876a1.535,1.535,0,1,1,0-3.07h30.713A1.535,1.535,0,1,1,343.589,1019.4Zm0,24.58H312.876a1.535,1.535,0,1,1,0-3.07h30.713A1.535,1.535,0,1,1,343.589,1043.98Zm0-36.87H312.876a1.535,1.535,0,1,1,0-3.07h30.713A1.535,1.535,0,1,1,343.589,1007.11Zm-6.143,21.51H319.018a1.535,1.535,0,1,1,0-3.07h18.428A1.535,1.535,0,1,1,337.446,1028.62Zm0,6.14H319.018a1.535,1.535,0,1,1,0-3.07h18.428A1.535,1.535,0,1,1,337.446,1034.76Z" transform="translate(-311.344 -967.188)"/>
</svg>
