<svg xmlns="http://www.w3.org/2000/svg" width="72.093" height="72.03" viewBox="0 0 72.093 72.03">
  <defs>
    <style>
      .cls-1 {
        fill: #5a5a5d;
        fill-rule: evenodd;
      }
    </style>
  </defs>
  <path id="_32" data-name="32" class="cls-1" d="M642.285,1333.31a1.525,1.525,0,0,1-1-.37l-53.823-46.27a9.9,9.9,0,0,1-.618-14.57,10.073,10.073,0,0,1,14.709.5l46.244,53.83a1.539,1.539,0,0,1-.078,2.09l-4.346,4.34A1.531,1.531,0,0,1,642.285,1333.31Zm-48.317-61.17a6.779,6.779,0,0,0-4.826,2,6.868,6.868,0,0,0-2.123,5.26,6.768,6.768,0,0,0,2.429,4.93l52.759,45.35,2.331-2.33-45.327-52.76A6.838,6.838,0,0,0,593.968,1272.14Zm50.939,69.06a5.41,5.41,0,0,1-3.867-1.61,5.458,5.458,0,0,1-.057-7.78l5.675-5.68a5.591,5.591,0,0,1,7.733,0,5.492,5.492,0,0,1,.057,7.79l-5.675,5.67A5.409,5.409,0,0,1,644.907,1341.2Zm5.618-13.6a2.394,2.394,0,0,0-1.695.7l-5.675,5.68a2.365,2.365,0,0,0-.7,1.69,2.45,2.45,0,0,0,4.148,1.75l5.675-5.67a2.4,2.4,0,0,0,0-3.39A2.436,2.436,0,0,0,650.525,1327.6Z" transform="translate(-583.938 -1269.16)"/>
</svg>
